<svg id="Layer_1" enable-background="new 0 0 51 51" height="512" viewBox="0 0 51 51" width="512" xmlns="http://www.w3.org/2000/svg"><g><g><g enable-background="new"><g><g><path d="m41.2122307 35.802681-.0176849 4.6326103c-.0177917 2.3106003-1.5286484 4.6212044-4.5679359 6.3986053-6.1142673 3.5548058-16.0499954 3.5548058-22.1997375 0-3.0927715-1.7950859-4.6391029-4.1234779-4.6391029-6.4696617l.0177917-4.6326103c.0000008 2.3461838 31.3889845 2.3816567 31.4066695.0710564z" fill="#354a59"/></g></g><g><g><path d="m36.574028 29.3367825c6.1506615 3.5510845 6.1830215 9.3036366.0723267 12.854784-6.1219749 3.5577011-16.053215 3.5577545-22.2038765.0066681-6.1507387-3.5511322-6.1831074-9.3036766-.0611334-12.8613777 6.1106958-3.5511494 16.0419455-3.5512047 22.1926832-.0000744z" fill="#384f63"/></g></g></g></g><g><g enable-background="new"><g><g><path d="m40.2775307 32.5896759-.0166283 2.3230133c-.0167351 2.1731491-1.4377136 4.3462944-4.2961998 6.0179596-5.7505379 3.343338-15.0952015 3.343338-20.8791046 0-2.9087868-1.6882973-4.3631287-3.8781776-4.3631287-6.0847893l.0167332-2.3230133c0 2.2066154 1.4543419 4.3964958 4.3630266 6.0848961 5.7840042 3.3433342 15.1286697 3.3433342 20.8792095-.0167351 2.8584853-1.6549339 4.2794638-3.8281822 4.2960921-6.0013313z" fill="#84dbff"/></g></g><g><g><path d="m35.9152527 26.5084267c5.7847672 3.3398361 5.8152008 8.7501755.0680199 12.0900726-5.7577858 3.3460579-15.0982304 3.3461075-20.8829994.0062675-5.7848396-3.3398781-5.8152838-8.7502117-.057497-12.0962715 5.7471808-3.3398952 15.0876349-3.3399486 20.8724765-.0000686z" fill="#7ccfe8"/></g></g></g></g><g><g enable-background="new"><g><g><path d="m41.2122307 27.4115257-.0176849 4.6326103c-.0177917 2.3106003-1.5286484 4.6212044-4.5679359 6.3986053-6.1142673 3.5548058-16.0499954 3.5548058-22.1997375 0-3.0927715-1.7950859-4.6391029-4.1234779-4.6391029-6.4696617l.0177917-4.6326103c.0000008 2.3461838 31.3889845 2.3816586 31.4066695.0710564z" fill="#354a59"/></g></g><g><g><path d="m36.574028 20.9456272c6.1506615 3.5510864 6.1830215 9.3036366.0723267 12.854784-6.1219749 3.5577011-16.053215 3.5577545-22.2038765.0066681-6.1507387-3.5511303-6.1831074-9.3036747-.0611334-12.8613777 6.1106958-3.5511475 16.0419455-3.5512047 22.1926832-.0000744z" fill="#384f63"/></g></g></g></g><g><g enable-background="new"><g><g><path d="m40.2775307 24.1985226-.0166283 2.3230114c-.0167351 2.1731472-1.4377136 4.3462944-4.2961998 6.0179634-5.7505379 3.3433342-15.0952015 3.3433342-20.8791046 0-2.9087868-1.6882992-4.3631287-3.8781796-4.3631287-6.0847931l.0167332-2.3230114c0 2.2066135 1.4543419 4.396492 4.3630266 6.0848923 5.7840042 3.3433361 15.1286697 3.3433361 20.8792095-.0167332 2.8584853-1.6549339 4.2794638-3.8281822 4.2960921-6.0013294z" fill="#84dbff"/></g></g><g><g><path d="m35.9152527 18.1172714c5.7847672 3.3398361 5.8152008 8.7501755.0680199 12.0900707-5.7577858 3.3460598-15.0982304 3.3461094-20.8829994.0062714-5.7848396-3.33988-5.8152838-8.7502136-.057497-12.0962734 5.7471808-3.3398953 15.0876349-3.3399487 20.8724765-.0000687z" fill="#7ccfe8"/></g></g></g></g><g><g enable-background="new"><g><g><path d="m41.2122307 19.0203705-.0176849 4.6326122c-.0177917 2.3106003-1.5286484 4.6212025-4.5679359 6.3986034-6.1142673 3.5548058-16.0499954 3.5548058-22.1997375 0-3.0927715-1.795084-4.6391029-4.1234779-4.6391029-6.4696617l.0177917-4.6326103c.0000008 2.3461838 31.3889845 2.3816586 31.4066695.0710564z" fill="#354a59"/></g></g><g><g><path d="m36.574028 12.554472c6.1506615 3.5510864 6.1830215 9.3036366.0723267 12.854784-6.1219749 3.557703-16.053215 3.5577545-22.2038765.0066681-6.1507387-3.5511303-6.1831074-9.3036747-.0611334-12.8613768 6.1106958-3.5511484 16.0419455-3.5512056 22.1926832-.0000753z" fill="#384f63"/></g></g></g></g><g><g enable-background="new"><g><g><path d="m40.2775307 15.8073673-.0166283 2.3230114c-.0167351 2.1731472-1.4377136 4.3462944-4.2961998 6.0179615-5.7505379 3.3433342-15.0952015 3.3433342-20.8791046 0-2.9087868-1.6882973-4.3631287-3.8781776-4.3631287-6.0847912l.0167332-2.3230114c0 2.2066135 1.4543419 4.3964939 4.3630266 6.0848923 5.7840042 3.3433361 15.1286697 3.3433361 20.8792095-.0167313 2.8584853-1.6549358 4.2794638-3.8281841 4.2960921-6.0013313z" fill="#84dbff"/></g></g><g><g><path d="m35.9152527 9.7261162c5.7847672 3.3398371 5.8152008 8.7501755.0680199 12.0900707-5.7577858 3.3460598-15.0982304 3.3461094-20.8829994.0062714-5.7848396-3.33988-5.8152838-8.7502127-.057497-12.0962725 5.7471808-3.3398957 15.0876349-3.3399491 20.8724765-.0000696z" fill="#7ccfe8"/></g></g></g></g><g><g><path d="m41.2122307 10.6292162-.0176849 4.6326103c-.0177917 2.3106012-1.5286484 4.6212034-4.5679359 6.3986044-6.1142673 3.5548058-16.0499954 3.5548058-22.1997375 0-3.0927715-1.795084-4.6391029-4.123476-4.6391029-6.4696608l.0177917-4.6326113c.0000008 2.3461848 31.3889845 2.3816586 31.4066695.0710574z" fill="#354a59"/></g></g><g><path d="m36.574028 4.1633177c6.1506615 3.5510864 6.1830215 9.3036356.0723267 12.854785-6.1219749 3.5577011-16.053215 3.5577526-22.2038765.0066662-6.1507387-3.5511303-6.1831074-9.3036747-.0611334-12.8613768 6.1106958-3.5511486 16.0419455-3.5512055 22.1926832-.0000744z" fill="#384f63"/></g><g><path d="m25.5493164 18.8439922c-4.0425224 0-7.8373966-.9054775-10.6850624-2.5500507-2.7125854-1.5660515-4.2083521-3.5966473-4.2110977-5.7172966-.0027456-2.1074705 1.4716053-4.1259861 4.1523437-5.6838012 2.8284473-1.6440246 6.6134377-2.5495012 10.6581554-2.5495012 4.0436211 0 7.8401432.9054766 10.6889057 2.5505993 2.7136841 1.5666008 4.2094498 3.5982952 4.2127457 5.7205915.0021973 2.1058226-1.4694099 4.1210432-4.1424599 5.6744661-2.8355865 1.64732-6.6255168 2.5549928-10.6735305 2.5549928zm-.0856609-15.9383647c-3.9469776 0-7.6314812.8785703-10.3759155 2.4737246-2.4995317 1.4523864-3.8750439 3.2979331-3.8722982 5.1961942.0027456 1.9119892 1.3980246 3.7701654 3.9299545 5.2318869 2.7636538 1.5957022 6.4580412 2.4742727 10.4039202 2.4742727 3.9502716 0 7.6402664-.8802166 10.3901939-2.4792147 2.4940414-1.4485435 3.8657074-3.290246 3.8635101-5.1868601-.0032921-1.9136362-1.3991203-3.7729101-3.9316025-5.2351809-2.7652969-1.5957033-6.4607849-2.4748227-10.4077625-2.4748227z" fill="#2e414c"/></g><g><g><path d="m39.1077538 16.3178673c.5472107-.3159332.9890594-.0641365.990799.5492859.0017815.6287498-.4371948 1.3891029-.9844093 1.7050362-.5338173.3081989-.9756622.0563908-.9774475-.5723591-.0017358-.6134224.4372405-1.3737622.9710578-1.681963z" fill="#2e414c"/></g></g><g><g><path d="m39.1110458 16.6928883c.3647156-.2105675.6592026-.0427475.6603622.3660965.0011864.4190578-.2913895.925827-.6561012 1.1363945-.3557854.2054138-.6502762.0375843-.6514626-.3814735-.0011596-.4088422.2914163-.9156037.6472016-1.1210175z" fill="#e5bd13"/></g></g><g><g><path d="m39.1077957 24.6148033c.5448418-.3145638.9847755-.0638599.9865074.5469055.0017738.6260262-.4353027 1.3830853-.9801445 1.697649-.5315018.3068638-.9714355.0561466-.9732094-.5698795-.0017318-.6107635.4353447-1.3678112.9668465-1.674675z" fill="#2e414c"/></g></g><g><g><path d="m39.1110458 24.9849529c.3647156-.2105675.6592026-.0427475.6603622.3660946.0011864.4190578-.2913895.9258289-.6561012 1.1363964-.3557854.2054119-.6502762.0375843-.6514626-.3814735-.0011596-.4088421.2914163-.9156056.6472016-1.1210175z" fill="#ecf0f1"/></g></g><g><g><path d="m39.1084328 33.0814018c.509613-.2942238.9211006-.0597305.922718.5115433.0016594.5855484-.4071541 1.2936554-.9167671 1.5878792-.497139.2870255-.9086266.0525169-.9102859-.5330315-.0016175-.57127.407196-1.2793693.904335-1.566391z" fill="#2e414c"/></g></g><g><g><path d="m39.1110458 33.379158c.3647156-.2105675.6592026-.0427475.6603622.3660965.0011864.4190559-.2913895.925827-.6561012 1.1363945-.3557854.2054138-.6502762.0375862-.6514626-.3814735-.0011596-.4088402.2914163-.9156037.6472016-1.1210175z" fill="#e74c3c"/></g></g><g><g><path d="m39.1077118 41.5683937c.5496025-.3173141.9933777-.0644188.9951248.5516853.0017929.6314964-.439106 1.3951683-.9887085 1.7124825-.5361481.3095474-.9799232.0566368-.9817162-.5748596-.0017471-.6161003.439148-1.3797646.9752999-1.6893082z" fill="#2e414c"/></g></g><g><g><path d="m39.1110458 41.9483261c.3647156-.2105675.6592026-.0427475.6603622.3660965.0011864.4190559-.2913895.925827-.6561012 1.1363945-.3557854.2054138-.6502762.0375824-.6514626-.3814735-.0011596-.408844.2914163-.9156037.6472016-1.1210175z" fill="#2ecc71"/></g></g></g></svg>