<?xml version="1.0" encoding="utf-8"?>
<!-- Generator: Adobe Illustrator 24.1.1, SVG Export Plug-In . SVG Version: 6.00 Build 0)  -->
<svg version="1.1" id="Layer_1" xmlns="http://www.w3.org/2000/svg" xmlns:xlink="http://www.w3.org/1999/xlink" x="0px" y="0px"
	 viewBox="0 0 138.7 166.1" style="enable-background:new 0 0 138.7 166.1;" xml:space="preserve">
<style type="text/css">
	.st0{fill:#CCCCCC;}
	.st1{fill:url(#SVGID_1_);}
	.st2{fill:#45576C;}
	.st3{fill:url(#SVGID_2_);}
	.st4{fill:#36487B;}
	.st5{fill:url(#SVGID_3_);}
	.st6{fill:url(#SVGID_4_);}
	.st7{fill:url(#SVGID_5_);}
	.st8{fill:url(#SVGID_6_);}
	.st9{fill:url(#SVGID_7_);}
	.st10{fill:#2D3D48;}
	.st11{fill:#383938;}
	.st12{fill:url(#XMLID_2_);}
	.st13{fill:#16181C;}
	.st14{fill:url(#SVGID_8_);}
	.st15{fill:url(#XMLID_3_);}
	.st16{fill:url(#SVGID_9_);}
	.st17{fill:url(#XMLID_4_);}
	.st18{fill:url(#SVGID_10_);}
	.st19{fill:url(#XMLID_5_);}
	.st20{fill:url(#SVGID_11_);}
</style>
<g>
	<path class="st0" d="M33.6,88.6c4.8-0.9,9.9-1.4,15.1-1.4c0.1,0,0.2,0,0.4,0c13.3,0.1,26.4,3.8,37.9,10.5l37.1,21.6l-68.3,38.9
		l-44.1-25.5l0.1,0c-4.6-3.1-8.1-6.7-10-10.7c-1.1-2.2-1.7-4.6-1.7-7C0,102.7,14.1,92.3,33.6,88.6z"/>
	<g>
		<g>
			<g>
				
					<linearGradient id="SVGID_1_" gradientUnits="userSpaceOnUse" x1="246.4983" y1="143.0913" x2="344.035" y2="143.0913" gradientTransform="matrix(1 0 0 1 -205.3628 0)">
					<stop  offset="0.1301" style="stop-color:#16181C"/>
					<stop  offset="0.1368" style="stop-color:#242D3A"/>
					<stop  offset="0.4693" style="stop-color:#242D3A"/>
					<stop  offset="0.4756" style="stop-color:#2D3D48"/>
					<stop  offset="0.8756" style="stop-color:#2D3D48"/>
					<stop  offset="0.8788" style="stop-color:#242D3A"/>
				</linearGradient>
				<path class="st1" d="M138.7,120.1v18.4c0,1-0.1,2-0.3,3.1c-2.6,13.8-23.3,24.5-48.4,24.5c-5.3,0-10.4-0.5-15.2-1.4
					c-17.8-3.3-31-12.1-33.2-23c-0.2-1-0.3-2-0.3-3.1l-0.1-9.7v-8.6h12l21.6-0.1l51.9-0.1H138.7z"/>
			</g>
			<path class="st2" d="M138.7,120.1c0,2.5-0.5,4.8-1.7,7.1c-3,6.7-10.3,12.3-20.3,16c-7.7,2.9-16.9,4.6-26.7,4.6
				c-5.3,0-10.4-0.5-15.2-1.4c-4.2-0.7-8-1.8-11.6-3.2c-9.9-3.7-17.3-9.3-20.4-15.9c-1.1-2.2-1.7-4.6-1.7-7
				c0-12.3,14.1-22.6,33.6-26.3c4.8-0.9,9.9-1.4,15.1-1.4C116.8,92.6,138.7,104.9,138.7,120.1z"/>
		</g>
		<g>
			<g>
				
					<linearGradient id="SVGID_2_" gradientUnits="userSpaceOnUse" x1="248.9019" y1="118.3184" x2="341.6312" y2="118.3184" gradientTransform="matrix(1 0 0 1 -205.3628 0)">
					<stop  offset="0.1777" style="stop-color:#045DA1"/>
					<stop  offset="0.1844" style="stop-color:#4375BA"/>
					<stop  offset="0.474" style="stop-color:#4375BA"/>
					<stop  offset="0.4756" style="stop-color:#669DD4"/>
					<stop  offset="0.8089" style="stop-color:#669DD4"/>
					<stop  offset="0.8169" style="stop-color:#4375BA"/>
				</linearGradient>
				<path class="st3" d="M136.3,94.6v21.3c0,1-0.1,1.9-0.3,2.9c-2.5,13.1-22.2,23.3-46,23.3c-5,0-9.9-0.5-14.4-1.3
					c-16.9-3.1-29.5-11.5-31.6-21.9c-0.2-1-0.3-1.9-0.3-3l-0.1-13v-8.2h11.4l20.6-0.1l49.3-0.1H136.3z"/>
			</g>
			<path class="st4" d="M136.3,94.6c0,2.3-0.5,4.6-1.6,6.7c-2.8,6.3-9.8,11.7-19.3,15.2c-7.3,2.7-16,4.3-25.4,4.3
				c-5,0-9.9-0.5-14.4-1.3c-3.9-0.7-7.6-1.7-11-3c-9.4-3.5-16.4-8.9-19.3-15.1c-1-2.1-1.6-4.3-1.6-6.7c0-11.6,13.4-21.5,32-25
				c4.5-0.8,9.4-1.3,14.4-1.3C115.5,68.4,136.3,80.1,136.3,94.6z"/>
		</g>
		<g>
			<g>
				
					<linearGradient id="SVGID_3_" gradientUnits="userSpaceOnUse" x1="246.4983" y1="112.2502" x2="344.035" y2="112.2502" gradientTransform="matrix(1 0 0 1 -205.3628 0)">
					<stop  offset="0.1301" style="stop-color:#16181C"/>
					<stop  offset="0.1368" style="stop-color:#242D3A"/>
					<stop  offset="0.4693" style="stop-color:#242D3A"/>
					<stop  offset="0.4756" style="stop-color:#2D3D48"/>
					<stop  offset="0.8756" style="stop-color:#2D3D48"/>
					<stop  offset="0.8788" style="stop-color:#242D3A"/>
				</linearGradient>
				<path class="st5" d="M138.7,89.3v18.4c0,1-0.1,2-0.3,3.1c-2.6,13.8-23.3,24.5-48.4,24.5c-5.3,0-10.4-0.5-15.2-1.4
					c-17.8-3.3-31-12.1-33.2-23c-0.2-1-0.3-2-0.3-3.1l-0.1-9.7v-8.6h12l21.6-0.1l51.9-0.1H138.7z"/>
			</g>
			<path class="st2" d="M138.7,89.3c0,2.5-0.5,4.8-1.7,7.1c-3,6.7-10.3,12.3-20.3,16c-7.7,2.9-16.9,4.6-26.7,4.6
				c-5.3,0-10.4-0.5-15.2-1.4c-4.2-0.7-8-1.8-11.6-3.2c-9.9-3.7-17.3-9.3-20.4-15.9c-1.1-2.2-1.7-4.6-1.7-7
				c0-12.3,14.1-22.6,33.6-26.3c4.8-0.9,9.9-1.4,15.1-1.4C116.8,61.8,138.7,74.1,138.7,89.3z"/>
		</g>
		<g>
			<g>
				
					<linearGradient id="SVGID_4_" gradientUnits="userSpaceOnUse" x1="248.9019" y1="87.2703" x2="341.6312" y2="87.2703" gradientTransform="matrix(1 0 0 1 -205.3628 0)">
					<stop  offset="0.1348" style="stop-color:#EE9C21"/>
					<stop  offset="0.1415" style="stop-color:#FDB813"/>
					<stop  offset="0.474" style="stop-color:#FDB813"/>
					<stop  offset="0.4803" style="stop-color:#FAD020"/>
					<stop  offset="0.8756" style="stop-color:#FAD020"/>
					<stop  offset="0.8835" style="stop-color:#FDB813"/>
				</linearGradient>
				<path class="st6" d="M136.3,63.5v21.3c0,1-0.1,1.9-0.3,2.9c-2.5,13.1-22.2,23.3-46,23.3c-5,0-9.9-0.5-14.4-1.3
					C58.6,106.6,46,98.2,43.9,87.9c-0.2-1-0.3-1.9-0.3-3l-0.1-13v-8.2h11.4l20.6-0.1l49.3-0.1H136.3z"/>
			</g>
			<path class="st4" d="M136.3,63.5c0,2.3-0.5,4.6-1.6,6.7c-2.8,6.3-9.8,11.7-19.3,15.2c-7.3,2.7-16,4.3-25.4,4.3
				c-5,0-9.9-0.5-14.4-1.3c-3.9-0.7-7.6-1.7-11-3c-9.4-3.5-16.4-8.9-19.3-15.1c-1-2.1-1.6-4.3-1.6-6.7c0-11.6,13.4-21.5,32-25
				c4.5-0.8,9.4-1.3,14.4-1.3C115.5,37.4,136.3,49.1,136.3,63.5z"/>
		</g>
		<g>
			<g>
				
					<linearGradient id="SVGID_5_" gradientUnits="userSpaceOnUse" x1="246.4983" y1="81.2022" x2="344.035" y2="81.2022" gradientTransform="matrix(1 0 0 1 -205.3628 0)">
					<stop  offset="0.1301" style="stop-color:#16181C"/>
					<stop  offset="0.1368" style="stop-color:#242D3A"/>
					<stop  offset="0.4693" style="stop-color:#242D3A"/>
					<stop  offset="0.4756" style="stop-color:#2D3D48"/>
					<stop  offset="0.8756" style="stop-color:#2D3D48"/>
					<stop  offset="0.8788" style="stop-color:#242D3A"/>
				</linearGradient>
				<path class="st7" d="M138.7,58.2v18.4c0,1-0.1,2-0.3,3.1c-2.6,13.8-23.3,24.5-48.4,24.5c-5.3,0-10.4-0.5-15.2-1.4
					c-17.8-3.3-31-12.1-33.2-23c-0.2-1-0.3-2-0.3-3.1L41.1,67v-8.6h12l21.6-0.1l51.9-0.1H138.7z"/>
			</g>
			<path class="st2" d="M138.7,58.2c0,2.5-0.5,4.8-1.7,7.1c-3,6.7-10.3,12.3-20.3,16c-7.7,2.9-16.9,4.6-26.7,4.6
				c-5.3,0-10.4-0.5-15.2-1.4c-4.2-0.7-8-1.8-11.6-3.2c-9.9-3.7-17.3-9.3-20.4-15.9c-1.1-2.2-1.7-4.6-1.7-7
				c0-12.3,14.1-22.6,33.6-26.3c4.8-0.9,9.9-1.4,15.1-1.4C116.8,30.7,138.7,43.1,138.7,58.2z"/>
		</g>
		<g>
			<g>
				
					<linearGradient id="SVGID_6_" gradientUnits="userSpaceOnUse" x1="248.9019" y1="56.5368" x2="341.6312" y2="56.5368" gradientTransform="matrix(1 0 0 1 -205.3628 0)">
					<stop  offset="0.1777" style="stop-color:#045DA1"/>
					<stop  offset="0.1844" style="stop-color:#4375BA"/>
					<stop  offset="0.474" style="stop-color:#4375BA"/>
					<stop  offset="0.4756" style="stop-color:#669DD4"/>
					<stop  offset="0.8089" style="stop-color:#669DD4"/>
					<stop  offset="0.8169" style="stop-color:#4375BA"/>
				</linearGradient>
				<path class="st8" d="M136.3,32.8v21.3c0,1-0.1,1.9-0.3,2.9c-2.5,13.1-22.2,23.3-46,23.3c-5,0-9.9-0.5-14.4-1.3
					C58.6,75.9,46,67.5,43.9,57.1c-0.2-1-0.3-1.9-0.3-3l-0.1-13v-8.2h11.4l20.6-0.1l49.3-0.1H136.3z"/>
			</g>
			<path class="st4" d="M136.3,32.8c0,2.3-0.5,4.6-1.6,6.7c-2.8,6.3-9.8,11.7-19.3,15.2c-7.3,2.7-16,4.3-25.4,4.3
				c-5,0-9.9-0.5-14.4-1.3c-3.9-0.7-7.6-1.7-11-3c-9.4-3.5-16.4-8.9-19.3-15.1c-1-2.1-1.6-4.3-1.6-6.7c0-11.6,13.4-21.5,32-25
				c4.5-0.8,9.4-1.3,14.4-1.3C115.5,6.6,136.3,18.3,136.3,32.8z"/>
		</g>
		<g>
			<g>
				
					<linearGradient id="SVGID_7_" gradientUnits="userSpaceOnUse" x1="246.4983" y1="50.4687" x2="344.035" y2="50.4687" gradientTransform="matrix(1 0 0 1 -205.3628 0)">
					<stop  offset="0.1301" style="stop-color:#16181C"/>
					<stop  offset="0.1368" style="stop-color:#242D3A"/>
					<stop  offset="0.4693" style="stop-color:#242D3A"/>
					<stop  offset="0.4756" style="stop-color:#2D3D48"/>
					<stop  offset="0.8756" style="stop-color:#2D3D48"/>
					<stop  offset="0.8788" style="stop-color:#242D3A"/>
				</linearGradient>
				<path class="st9" d="M138.7,27.5v18.4c0,1-0.1,2-0.3,3.1c-2.6,13.8-23.3,24.5-48.4,24.5c-5.3,0-10.4-0.5-15.2-1.4
					c-17.8-3.3-31-12.1-33.2-23c-0.2-1-0.3-2-0.3-3.1l-0.1-9.7v-8.6h12l21.6-0.1l51.9-0.1H138.7z"/>
			</g>
			<path class="st2" d="M138.7,27.5c0,2.5-0.5,4.8-1.7,7.1c-3,6.7-10.3,12.3-20.3,16c-7.7,2.9-16.9,4.6-26.7,4.6
				c-5.3,0-10.4-0.5-15.2-1.4c-4.2-0.7-8-1.8-11.6-3.2c-9.9-3.7-17.3-9.3-20.4-15.9c-1.1-2.2-1.7-4.6-1.7-7
				C41.1,15.4,55.2,5,74.8,1.4C79.5,0.5,84.6,0,89.9,0C116.8,0,138.7,12.3,138.7,27.5z"/>
			<path class="st10" d="M89.9,43.8c8.6,0,17-1.4,24.3-4.1c8.2-3,14.1-7.5,16.3-12.2l0.2-0.3c0.6-1.2,0.9-2.4,0.9-3.8
				c0-9.6-17.1-20.4-41.7-20.4c-4.7,0-9.4,0.4-13.8,1.2c-16.1,3-27.8,11.1-27.8,19.3c0,1.3,0.3,2.5,1,3.9c2.3,4.9,8.2,9.3,16.4,12.4
				c3.3,1.3,6.7,2.2,10.4,2.9C80.5,43.4,85.2,43.8,89.9,43.8z"/>
			<path class="st2" d="M89.9,42c8.4,0,16.6-1.4,23.7-4c7.8-2.9,13.3-7,15.3-11.3l0.2-0.4c0.5-1,0.7-2,0.7-3.1
				c0-7.8-15.2-18.6-39.9-18.6c-4.6,0-9.2,0.4-13.5,1.2C61.4,8.7,50,16.2,50,23.4c0,1,0.3,2,0.8,3.1c2.1,4.4,7.7,8.6,15.4,11.5
				c3.2,1.2,6.6,2.2,10.1,2.8C80.7,41.6,85.3,42,89.9,42z"/>
			<path class="st11" d="M137,30.4c-3,6.7-10.3,12.3-20.3,16C109,49.3,99.8,51,89.9,51c-5.3,0-10.4-0.5-15.2-1.4
				c-4.2-0.7-8-1.8-11.6-3.2c-9.9-3.7-17.3-9.3-20.4-15.9c-0.8-1.5-1.2-3.2-1.4-4.8c-0.1,0.6-0.3,1.3-0.3,1.9c0,2.5,0.6,4.8,1.7,7
				c3.1,6.6,10.4,12.3,20.4,15.9c3.5,1.4,7.4,2.5,11.6,3.2c4.8,0.9,9.9,1.4,15.2,1.4c9.9,0,19.1-1.7,26.7-4.6
				c9.9-3.7,17.3-9.3,20.3-16c1.2-2.2,1.7-4.6,1.7-7.1c0-0.8-0.1-1.6-0.2-2.3C138.3,27,137.8,28.7,137,30.4z"/>
		</g>
		<g>
			
				<linearGradient id="XMLID_2_" gradientUnits="userSpaceOnUse" x1="-50.6905" y1="57.1381" x2="-47.0128" y2="63.5589" gradientTransform="matrix(-1 0 0 1 65.5635 0)">
				<stop  offset="0.1212" style="stop-color:#161C24"/>
				<stop  offset="0.1244" style="stop-color:#212B34"/>
				<stop  offset="0.5244" style="stop-color:#212B34"/>
				<stop  offset="0.5307" style="stop-color:#161C24"/>
				<stop  offset="0.8632" style="stop-color:#161C24"/>
				<stop  offset="0.8699" style="stop-color:#16181C"/>
			</linearGradient>
			<path id="XMLID_54_" class="st12" d="M112.2,63.3l1.4,0.9l0.2-0.3c1-0.1,2.1-1,2.9-2.4c0.5-0.9,0.8-1.9,0.8-2.7
				c0-0.5-0.1-0.9-0.3-1.3l0-0.2c0,0-1.3-0.8-1.3-0.9l0,0v0c-1-0.4-2.6,0.6-3.6,2.3c-0.4,0.8-0.7,1.6-0.8,2.3
				C111.4,62.2,111.6,63,112.2,63.3z"/>
			<path id="XMLID_53_" class="st13" d="M113.4,64.1c1,0.6,2.7-0.4,3.8-2.2c1.1-1.8,1.1-3.8,0-4.4c-1-0.6-2.7,0.4-3.8,2.2
				S112.4,63.6,113.4,64.1z"/>
			
				<radialGradient id="SVGID_8_" cx="-137.8246" cy="59.2202" r="2.9091" fx="-138.874" fy="59.2441" gradientTransform="matrix(-1 0 0 1 -22.2055 0)" gradientUnits="userSpaceOnUse">
				<stop  offset="0" style="stop-color:#B7D433"/>
				<stop  offset="1" style="stop-color:#7FB642"/>
			</radialGradient>
			<path class="st14" d="M114.1,63.8c0.7,0,1.8-0.7,2.7-2.1c1-1.7,0.9-3.3,0.2-3.7c-0.1-0.1-0.3-0.1-0.4-0.1c-0.7,0-1.8,0.7-2.6,2.1
				c-1,1.7-0.9,3.3-0.2,3.7C113.8,63.8,113.9,63.8,114.1,63.8z"/>
		</g>
		<g>
			
				<linearGradient id="XMLID_3_" gradientUnits="userSpaceOnUse" x1="-50.6904" y1="87.8716" x2="-47.0127" y2="94.2923" gradientTransform="matrix(-1 0 0 1 65.5635 0)">
				<stop  offset="0.1212" style="stop-color:#161C24"/>
				<stop  offset="0.1244" style="stop-color:#212B34"/>
				<stop  offset="0.5244" style="stop-color:#212B34"/>
				<stop  offset="0.5307" style="stop-color:#161C24"/>
				<stop  offset="0.8632" style="stop-color:#161C24"/>
				<stop  offset="0.8699" style="stop-color:#16181C"/>
			</linearGradient>
			<path id="XMLID_14_" class="st15" d="M112.2,94.1l1.4,0.9l0.2-0.3c1-0.1,2.1-1,2.9-2.4c0.5-0.9,0.8-1.9,0.8-2.7
				c0-0.5-0.1-0.9-0.3-1.3l0-0.2c0,0-1.3-0.8-1.3-0.9l0,0v0c-1-0.4-2.6,0.6-3.6,2.3c-0.4,0.8-0.7,1.6-0.8,2.3
				C111.4,92.9,111.6,93.7,112.2,94.1z"/>
			<path id="XMLID_13_" class="st13" d="M113.4,94.9c1,0.6,2.7-0.4,3.8-2.2c1.1-1.8,1.1-3.8,0-4.4c-1-0.6-2.7,0.4-3.8,2.2
				C112.4,92.3,112.4,94.3,113.4,94.9z"/>
			
				<radialGradient id="SVGID_9_" cx="-138.4627" cy="90.3419" r="2.5825" gradientTransform="matrix(-1 0 0 1 -22.2055 0)" gradientUnits="userSpaceOnUse">
				<stop  offset="0" style="stop-color:#B7D433"/>
				<stop  offset="1" style="stop-color:#7FB642"/>
			</radialGradient>
			<path class="st16" d="M114.1,94.5c0.7,0,1.8-0.7,2.7-2.1c1-1.7,0.9-3.3,0.2-3.7c-0.1-0.1-0.3-0.1-0.4-0.1c-0.7,0-1.8,0.7-2.6,2.1
				c-1,1.7-0.9,3.3-0.2,3.7C113.8,94.5,113.9,94.5,114.1,94.5z"/>
		</g>
		<g>
			
				<linearGradient id="XMLID_4_" gradientUnits="userSpaceOnUse" x1="-50.278" y1="119.0804" x2="-46.6003" y2="125.5011" gradientTransform="matrix(-1 0 0 1 65.5635 0)">
				<stop  offset="0.1212" style="stop-color:#161C24"/>
				<stop  offset="0.1244" style="stop-color:#212B34"/>
				<stop  offset="0.5244" style="stop-color:#212B34"/>
				<stop  offset="0.5307" style="stop-color:#161C24"/>
				<stop  offset="0.8632" style="stop-color:#161C24"/>
				<stop  offset="0.8699" style="stop-color:#16181C"/>
			</linearGradient>
			<path id="XMLID_16_" class="st17" d="M111.8,125.3l1.4,0.9l0.2-0.3c1-0.1,2.1-1,2.9-2.4c0.5-0.9,0.8-1.9,0.8-2.7
				c0-0.5-0.1-0.9-0.3-1.3l0-0.2c0,0-1.3-0.8-1.3-0.9l0,0v0c-1-0.4-2.6,0.6-3.6,2.3c-0.4,0.8-0.7,1.6-0.8,2.3
				C111,124.1,111.2,124.9,111.8,125.3z"/>
			<path id="XMLID_15_" class="st13" d="M113,126.1c1,0.6,2.7-0.4,3.8-2.2c1.1-1.8,1.1-3.8,0-4.4c-1-0.6-2.7,0.4-3.8,2.2
				C112,123.5,112,125.5,113,126.1z"/>
			
				<radialGradient id="SVGID_10_" cx="-138.0504" cy="121.3843" r="2.5825" gradientTransform="matrix(-1 0 0 1 -22.2055 0)" gradientUnits="userSpaceOnUse">
				<stop  offset="0" style="stop-color:#B7D433"/>
				<stop  offset="1" style="stop-color:#7FB642"/>
			</radialGradient>
			<path class="st18" d="M113.7,125.7c0.7,0,1.8-0.7,2.7-2.1c1-1.7,0.9-3.3,0.2-3.7c-0.1-0.1-0.3-0.1-0.4-0.1
				c-0.7,0-1.8,0.7-2.6,2.1c-1,1.7-0.9,3.3-0.2,3.7C113.4,125.7,113.5,125.7,113.7,125.7z"/>
		</g>
		<g>
			
				<linearGradient id="XMLID_5_" gradientUnits="userSpaceOnUse" x1="-50.6905" y1="150.5803" x2="-47.0128" y2="157.0011" gradientTransform="matrix(-1 0 0 1 65.5635 0)">
				<stop  offset="0.1212" style="stop-color:#161C24"/>
				<stop  offset="0.1244" style="stop-color:#212B34"/>
				<stop  offset="0.5244" style="stop-color:#212B34"/>
				<stop  offset="0.5307" style="stop-color:#161C24"/>
				<stop  offset="0.8632" style="stop-color:#161C24"/>
				<stop  offset="0.8699" style="stop-color:#16181C"/>
			</linearGradient>
			<path id="XMLID_18_" class="st19" d="M112.2,156.8l1.4,0.9l0.2-0.3c1-0.1,2.1-1,2.9-2.4c0.5-0.9,0.8-1.9,0.8-2.7
				c0-0.5-0.1-0.9-0.3-1.3l0-0.2c0,0-1.3-0.8-1.3-0.9l0,0v0c-1-0.4-2.6,0.6-3.6,2.3c-0.4,0.8-0.7,1.6-0.8,2.3
				C111.4,155.6,111.6,156.4,112.2,156.8z"/>
			<path id="XMLID_17_" class="st13" d="M113.4,157.6c1,0.6,2.7-0.4,3.8-2.2c1.1-1.8,1.1-3.8,0-4.4c-1-0.6-2.7,0.4-3.8,2.2
				S112.4,157,113.4,157.6z"/>
			
				<radialGradient id="SVGID_11_" cx="-138.6846" cy="152.607" r="2.5825" gradientTransform="matrix(-1 0 0 1 -22.2055 0)" gradientUnits="userSpaceOnUse">
				<stop  offset="0" style="stop-color:#B7D433"/>
				<stop  offset="1" style="stop-color:#7FB642"/>
			</radialGradient>
			<path class="st20" d="M114.1,157.2c0.7,0,1.8-0.7,2.7-2.1c1-1.7,0.9-3.3,0.2-3.7c-0.1-0.1-0.3-0.1-0.4-0.1
				c-0.7,0-1.8,0.7-2.6,2.1c-1,1.7-0.9,3.3-0.2,3.7C113.8,157.2,113.9,157.2,114.1,157.2z"/>
		</g>
	</g>
</g>
</svg>
