<?xml version="1.0" encoding="utf-8"?>
<!-- Generator: Adobe Illustrator 24.1.1, SVG Export Plug-In . SVG Version: 6.00 Build 0)  -->
<svg version="1.1" id="Layer_1" xmlns="http://www.w3.org/2000/svg" xmlns:xlink="http://www.w3.org/1999/xlink" x="0px" y="0px"
	 viewBox="0 0 79.8 104.4" style="enable-background:new 0 0 79.8 104.4;" xml:space="preserve">
<style type="text/css">
	.st0{clip-path:url(#SVGID_1_);}
	.st1{fill:url(#SVGID_2_);}
	.st2{fill:url(#SVGID_3_);}
	.st3{fill:url(#SVGID_4_);}
	.st4{fill:url(#SVGID_5_);}
	.st5{fill:url(#SVGID_6_);}
	.st6{fill:#4B7899;}
	.st7{fill:url(#SVGID_7_);}
	.st8{fill:url(#SVGID_8_);}
	.st9{fill:url(#SVGID_9_);}
	.st10{opacity:0.75;fill:url(#SVGID_10_);}
	.st11{fill:url(#SVGID_11_);}
	.st12{opacity:0.75;fill:url(#SVGID_12_);}
	.st13{fill:url(#SVGID_13_);}
	.st14{opacity:0.75;fill:url(#SVGID_14_);}
	.st15{fill:url(#SVGID_15_);}
	.st16{fill:#338BCA;}
	.st17{fill:#37C1D2;}
	.st18{filter:url(#Adobe_OpacityMaskFilter);}
	.st19{fill:url(#SVGID_17_);}
	.st20{mask:url(#SVGID_16_);fill:url(#SVGID_18_);}
	.st21{filter:url(#Adobe_OpacityMaskFilter_1_);}
	.st22{fill:url(#SVGID_20_);}
	.st23{mask:url(#SVGID_19_);fill:url(#SVGID_21_);}
	.st24{filter:url(#Adobe_OpacityMaskFilter_2_);}
	.st25{fill:url(#SVGID_23_);}
	.st26{mask:url(#SVGID_22_);fill:url(#SVGID_24_);}
	.st27{filter:url(#Adobe_OpacityMaskFilter_3_);}
	.st28{fill:url(#SVGID_26_);}
	.st29{mask:url(#SVGID_25_);fill:url(#SVGID_27_);}
	.st30{filter:url(#Adobe_OpacityMaskFilter_4_);}
	.st31{fill:url(#SVGID_29_);}
	.st32{mask:url(#SVGID_28_);fill:url(#SVGID_30_);}
	.st33{opacity:0.55;clip-path:url(#SVGID_1_);fill:url(#SVGID_31_);}
</style>
<g>
	<defs>
		<path id="SVGID_33_" d="M69.4,17.9L69.4,17.9L69.4,17.9c-0.1-0.4-0.3-0.7-0.6-0.9c0,0,0,0,0,0c-0.1-0.1-0.3-0.2-0.4-0.2
			c0,0-0.1,0-0.1,0c-0.2-0.1-0.3-0.1-0.5-0.1h-2.4v-3.7H16.1v3.7h-2.2c-0.2,0-0.4,0-0.5,0.1c0,0-0.1,0-0.1,0
			c-0.2,0.1-0.3,0.1-0.4,0.2c0,0,0,0,0,0c-0.3,0.2-0.5,0.5-0.6,0.9l0,0l0,0c0,0.1-0.1,0.3-0.1,0.4v13.3v0c0,0.4,0.1,0.7,0.3,1
			c0.2,0.3,0.4,0.5,0.8,0.6c0.2,0.1,0.4,0.1,0.7,0.1h2.2v4h-2.2c-0.1,0-0.2,0-0.3,0c-0.1,0-0.1,0-0.1,0c-0.1,0-0.1,0-0.2,0.1
			c-0.1,0-0.1,0.1-0.2,0.1c0,0-0.1,0-0.1,0c-0.1,0.1-0.2,0.1-0.2,0.2c0,0,0,0,0,0c-0.3,0.3-0.5,0.7-0.5,1.2v0l0,0c0,0,0,0,0,0v13.3
			v0c0,0.4,0.1,0.7,0.3,1c0.2,0.3,0.4,0.5,0.8,0.6c0.2,0.1,0.4,0.1,0.7,0.1h2.2v4h-2.2c-0.2,0-0.4,0-0.6,0.1c0,0,0,0-0.1,0
			c-0.2,0.1-0.3,0.2-0.5,0.3c0,0,0,0,0,0c-0.1,0.1-0.3,0.3-0.3,0.4c0,0,0,0,0,0c-0.1,0.2-0.2,0.4-0.2,0.6v0l0,0c0,0.1,0,0.2,0,0.3
			V73v0.1c0,0.4,0.1,0.7,0.3,1c0.2,0.3,0.4,0.5,0.8,0.6c0.2,0.1,0.4,0.1,0.7,0.1h2.2v5.5h21V90H30v1.3h-3.5H12v5.2h14.5H30v1.1h21.4
			v-1.1h2.7h15.2v-5.2H54.1h-2.7V90h-7.1v-9.7h21v-5.5h2.4c0.9,0,1.7-0.8,1.7-1.7V73V59.8c0-0.1,0-0.2,0-0.3l0,0v0
			c0-0.2-0.1-0.4-0.2-0.6c0,0,0,0,0,0c-0.1-0.2-0.2-0.3-0.3-0.4c0,0,0,0,0,0c-0.1-0.1-0.3-0.2-0.5-0.3c0,0,0,0-0.1,0
			c-0.2-0.1-0.4-0.1-0.6-0.1h-2.4v-4h2.4c0.9,0,1.7-0.8,1.7-1.7v0V39c0,0,0,0,0,0l0,0v0c0-0.5-0.2-0.9-0.5-1.2c0,0,0,0,0,0
			c-0.1-0.1-0.2-0.1-0.2-0.2c0,0-0.1,0-0.1,0c-0.1,0-0.1-0.1-0.2-0.1c-0.1,0-0.1,0-0.2-0.1c0,0-0.1,0-0.1,0c-0.1,0-0.2,0-0.3,0h-2.4
			v-4h2.4c0.9,0,1.7-0.8,1.7-1.7v0V18.3C69.5,18.1,69.5,18,69.4,17.9z"/>
	</defs>
	<clipPath id="SVGID_1_">
		<use xlink:href="#SVGID_33_"  style="overflow:visible;"/>
	</clipPath>
	<g class="st0">
		<g>
			<linearGradient id="SVGID_2_" gradientUnits="userSpaceOnUse" x1="40.6663" y1="91.3849" x2="40.6663" y2="96.7422">
				<stop  offset="4.723550e-02" style="stop-color:#EFEFF3"/>
				<stop  offset="0.2913" style="stop-color:#D3D4D9"/>
				<stop  offset="0.4973" style="stop-color:#80828C"/>
				<stop  offset="0.7101" style="stop-color:#AAABB0"/>
				<stop  offset="0.7425" style="stop-color:#B6B7BC"/>
				<stop  offset="0.7908" style="stop-color:#C4C5CA"/>
				<stop  offset="0.8289" style="stop-color:#C9C9CF"/>
				<stop  offset="0.842" style="stop-color:#CECFD4"/>
				<stop  offset="0.8932" style="stop-color:#E0E0E4"/>
				<stop  offset="0.9455" style="stop-color:#ECECEF"/>
				<stop  offset="1" style="stop-color:#EFEFF3"/>
			</linearGradient>
			<rect x="12" y="91.3" class="st1" width="57.3" height="5.2"/>
			<linearGradient id="SVGID_3_" gradientUnits="userSpaceOnUse" x1="40.3198" y1="91.3849" x2="40.3198" y2="96.7422">
				<stop  offset="0.2913" style="stop-color:#D3D4D9"/>
				<stop  offset="0.7101" style="stop-color:#88888F"/>
				<stop  offset="0.7148" style="stop-color:#8B8B92"/>
				<stop  offset="0.7643" style="stop-color:#AAAAB0"/>
				<stop  offset="0.804" style="stop-color:#C0C0C6"/>
				<stop  offset="0.8289" style="stop-color:#C9C9CF"/>
			</linearGradient>
			<rect x="26.5" y="91.3" class="st2" width="27.7" height="5.2"/>
			<g>
				<linearGradient id="SVGID_4_" gradientUnits="userSpaceOnUse" x1="36.5558" y1="84.5618" x2="43.5809" y2="84.5618">
					<stop  offset="0.1711" style="stop-color:#C9C9CF"/>
					<stop  offset="0.2092" style="stop-color:#C4C5CA"/>
					<stop  offset="0.2575" style="stop-color:#B6B7BC"/>
					<stop  offset="0.2899" style="stop-color:#AAABB0"/>
					<stop  offset="0.4385" style="stop-color:#71737D"/>
					<stop  offset="0.7087" style="stop-color:#D3D4D9"/>
					<stop  offset="0.9528" style="stop-color:#EFEFF3"/>
				</linearGradient>
				<rect x="37.1" y="76.4" class="st3" width="7.2" height="16.2"/>
				<linearGradient id="SVGID_5_" gradientUnits="userSpaceOnUse" x1="40.7286" y1="90.6195" x2="40.7286" y2="97.6392">
					<stop  offset="4.723550e-02" style="stop-color:#EFEFF3"/>
					<stop  offset="0.1818" style="stop-color:#EFEFF0"/>
					<stop  offset="0.302" style="stop-color:#D3D4D9"/>
					<stop  offset="0.5455" style="stop-color:#787B85"/>
					<stop  offset="0.7101" style="stop-color:#AAABB0"/>
					<stop  offset="0.7425" style="stop-color:#B6B7BC"/>
					<stop  offset="0.7908" style="stop-color:#C4C5CA"/>
					<stop  offset="0.8289" style="stop-color:#C9C9CF"/>
				</linearGradient>
				<rect x="30" y="90" class="st4" width="21.4" height="7.6"/>
			</g>
		</g>
		<g>
			<linearGradient id="SVGID_6_" gradientUnits="userSpaceOnUse" x1="16.0886" y1="46.556" x2="65.3686" y2="46.556">
				<stop  offset="4.723550e-02" style="stop-color:#EFEFF3"/>
				<stop  offset="0.1016" style="stop-color:#C4C3C9"/>
				<stop  offset="0.3501" style="stop-color:#D3D4D9"/>
				<stop  offset="0.5871" style="stop-color:#AAABB0"/>
				<stop  offset="0.5914" style="stop-color:#ABACB1"/>
				<stop  offset="0.6719" style="stop-color:#BABDC4"/>
				<stop  offset="0.754" style="stop-color:#C3C8D0"/>
				<stop  offset="0.8396" style="stop-color:#C6CCD4"/>
				<stop  offset="0.8976" style="stop-color:#C9CED6"/>
				<stop  offset="0.9394" style="stop-color:#D1D5DC"/>
				<stop  offset="0.976" style="stop-color:#E0E2E7"/>
				<stop  offset="1" style="stop-color:#EFEFF3"/>
			</linearGradient>
			<rect x="16.1" y="12.8" class="st5" width="49.3" height="67.5"/>
			<rect x="16.1" y="22.9" class="st6" width="49.3" height="57.4"/>
			<linearGradient id="SVGID_7_" gradientUnits="userSpaceOnUse" x1="12.1278" y1="24.9253" x2="69.4997" y2="24.9253">
				<stop  offset="0" style="stop-color:#615C6B"/>
				<stop  offset="0.1818" style="stop-color:#151222"/>
				<stop  offset="0.5829" style="stop-color:#1F1A2E"/>
				<stop  offset="0.7487" style="stop-color:#ADAAB2"/>
				<stop  offset="0.8182" style="stop-color:#615C6B"/>
			</linearGradient>
			<path class="st7" d="M12.1,18.3v13.3c0,0.9,0.8,1.7,1.7,1.7h53.9c0.9,0,1.7-0.8,1.7-1.7V18.3c0-0.9-0.8-1.7-1.7-1.7H13.8
				C12.9,16.6,12.1,17.3,12.1,18.3z"/>
			<linearGradient id="SVGID_8_" gradientUnits="userSpaceOnUse" x1="12.1278" y1="45.6973" x2="69.4997" y2="45.6973">
				<stop  offset="0" style="stop-color:#615C6B"/>
				<stop  offset="0.1818" style="stop-color:#151222"/>
				<stop  offset="0.5829" style="stop-color:#1F1A2E"/>
				<stop  offset="0.7487" style="stop-color:#ADAAB2"/>
				<stop  offset="0.8182" style="stop-color:#615C6B"/>
			</linearGradient>
			<path class="st8" d="M12.1,39v13.3c0,0.9,0.8,1.7,1.7,1.7h53.9c0.9,0,1.7-0.8,1.7-1.7V39c0-0.9-0.8-1.7-1.7-1.7H13.8
				C12.9,37.3,12.1,38.1,12.1,39z"/>
			<linearGradient id="SVGID_9_" gradientUnits="userSpaceOnUse" x1="12.1278" y1="66.4692" x2="69.4997" y2="66.4692">
				<stop  offset="0" style="stop-color:#615C6B"/>
				<stop  offset="0.1818" style="stop-color:#151222"/>
				<stop  offset="0.5829" style="stop-color:#1F1A2E"/>
				<stop  offset="0.7487" style="stop-color:#ADAAB2"/>
				<stop  offset="0.8182" style="stop-color:#615C6B"/>
			</linearGradient>
			<path class="st9" d="M12.1,59.8v13.3c0,0.9,0.8,1.7,1.7,1.7h53.9c0.9,0,1.7-0.8,1.7-1.7V59.8c0-0.9-0.8-1.7-1.7-1.7H13.8
				C12.9,58.1,12.1,58.9,12.1,59.8z"/>
			<linearGradient id="SVGID_10_" gradientUnits="userSpaceOnUse" x1="12.1812" y1="17.2131" x2="69.5529" y2="17.2131">
				<stop  offset="0" style="stop-color:#615C6B"/>
				<stop  offset="0.1818" style="stop-color:#151222"/>
				<stop  offset="0.5829" style="stop-color:#1F1A2E"/>
				<stop  offset="0.7487" style="stop-color:#ADAAB2"/>
				<stop  offset="0.8182" style="stop-color:#615C6B"/>
			</linearGradient>
			<path class="st10" d="M69.4,17.9c-0.2-0.7-0.9-1.3-1.7-1.3H13.8c-0.8,0-1.5,0.6-1.7,1.3H69.4z"/>
			<linearGradient id="SVGID_11_" gradientUnits="userSpaceOnUse" x1="12.1278" y1="32.425" x2="69.4997" y2="32.425">
				<stop  offset="0" style="stop-color:#615C6B"/>
				<stop  offset="0.1818" style="stop-color:#151222"/>
				<stop  offset="0.5829" style="stop-color:#1F1A2E"/>
				<stop  offset="0.7487" style="stop-color:#ADAAB2"/>
				<stop  offset="0.8182" style="stop-color:#615C6B"/>
			</linearGradient>
			<path class="st11" d="M12.1,31.6L12.1,31.6c0,1,0.8,1.7,1.7,1.7h53.9c0.9,0,1.7-0.8,1.7-1.7v0H12.1z"/>
			<linearGradient id="SVGID_12_" gradientUnits="userSpaceOnUse" x1="12.1308" y1="38.1729" x2="69.4967" y2="38.1729">
				<stop  offset="0" style="stop-color:#615C6B"/>
				<stop  offset="0.1818" style="stop-color:#151222"/>
				<stop  offset="0.5829" style="stop-color:#1F1A2E"/>
				<stop  offset="0.7487" style="stop-color:#ADAAB2"/>
				<stop  offset="0.8182" style="stop-color:#615C6B"/>
			</linearGradient>
			<path class="st12" d="M69.5,39c0-0.9-0.8-1.7-1.7-1.7H13.8c-0.9,0-1.7,0.8-1.7,1.7H69.5z"/>
			<linearGradient id="SVGID_13_" gradientUnits="userSpaceOnUse" x1="12.1278" y1="53.2015" x2="69.4997" y2="53.2015">
				<stop  offset="0" style="stop-color:#615C6B"/>
				<stop  offset="0.1818" style="stop-color:#151222"/>
				<stop  offset="0.5829" style="stop-color:#1F1A2E"/>
				<stop  offset="0.7487" style="stop-color:#ADAAB2"/>
				<stop  offset="0.8182" style="stop-color:#615C6B"/>
			</linearGradient>
			<path class="st13" d="M12.1,52.3L12.1,52.3c0,1,0.8,1.7,1.7,1.7h53.9c0.9,0,1.7-0.8,1.7-1.7v0H12.1z"/>
			<linearGradient id="SVGID_14_" gradientUnits="userSpaceOnUse" x1="12.1545" y1="58.8272" x2="69.473" y2="58.8272">
				<stop  offset="0" style="stop-color:#615C6B"/>
				<stop  offset="0.1818" style="stop-color:#151222"/>
				<stop  offset="0.5829" style="stop-color:#1F1A2E"/>
				<stop  offset="0.7487" style="stop-color:#ADAAB2"/>
				<stop  offset="0.8182" style="stop-color:#615C6B"/>
			</linearGradient>
			<path class="st14" d="M69.5,59.6c-0.1-0.8-0.8-1.4-1.7-1.4H13.8c-0.9,0-1.6,0.6-1.7,1.4H69.5z"/>
			<linearGradient id="SVGID_15_" gradientUnits="userSpaceOnUse" x1="12.1278" y1="73.9169" x2="69.4997" y2="73.9169">
				<stop  offset="0" style="stop-color:#615C6B"/>
				<stop  offset="0.1818" style="stop-color:#151222"/>
				<stop  offset="0.5829" style="stop-color:#1F1A2E"/>
				<stop  offset="0.7487" style="stop-color:#ADAAB2"/>
				<stop  offset="0.8182" style="stop-color:#615C6B"/>
			</linearGradient>
			<path class="st15" d="M12.1,73v0.1c0,0.9,0.8,1.7,1.7,1.7h53.9c0.9,0,1.7-0.8,1.7-1.7V73H12.1z"/>
			<path class="st16" d="M55.9,23.3c0,1.1-0.9,2.1-2.1,2.1c-1.1,0-2.1-0.9-2.1-2.1c0-1.1,0.9-2.1,2.1-2.1
				C54.9,21.3,55.9,22.2,55.9,23.3z"/>
			<circle class="st17" cx="59.9" cy="23.3" r="2.1"/>
			<path class="st16" d="M55.9,43.7c0,1.1-0.9,2.1-2.1,2.1c-1.1,0-2.1-0.9-2.1-2.1c0-1.1,0.9-2.1,2.1-2.1
				C54.9,41.6,55.9,42.5,55.9,43.7z"/>
			<circle class="st17" cx="59.9" cy="43.7" r="2.1"/>
			<path class="st16" d="M55.9,64c0,1.1-0.9,2.1-2.1,2.1c-1.1,0-2.1-0.9-2.1-2.1s0.9-2.1,2.1-2.1C54.9,61.9,55.9,62.8,55.9,64z"/>
			<circle class="st17" cx="59.9" cy="64" r="2.1"/>
		</g>
	</g>
	<g class="st0">
		<defs>
			<filter id="Adobe_OpacityMaskFilter" filterUnits="userSpaceOnUse" x="44.2" y="-1.3" width="35.6" height="31.7">
				<feColorMatrix  type="matrix" values="1 0 0 0 0  0 1 0 0 0  0 0 1 0 0  0 0 0 1 0"/>
			</filter>
		</defs>
		<mask maskUnits="userSpaceOnUse" x="44.2" y="-1.3" width="35.6" height="31.7" id="SVGID_16_">
			<g class="st18">
				
					<radialGradient id="SVGID_17_" cx="387.2656" cy="-395.9381" r="12.8548" gradientTransform="matrix(0.6627 -0.7794 1.216 0.955 286.8145 694.4631)" gradientUnits="userSpaceOnUse">
					<stop  offset="0" style="stop-color:#FFFFFF"/>
					<stop  offset="0.1508" style="stop-color:#CDCBCB"/>
					<stop  offset="0.4779" style="stop-color:#757271"/>
					<stop  offset="0.9536" style="stop-color:#101010"/>
					<stop  offset="1" style="stop-color:#010101"/>
				</radialGradient>
				<path class="st19" d="M70.5,4.5c8.6,6.8,11.8,16.8,7.1,22.3s-15.5,4.5-24.1-2.3c-8.6-6.8-11.8-16.8-7.1-22.3
					C51.1-3.3,61.9-2.3,70.5,4.5z"/>
			</g>
		</mask>
		
			<radialGradient id="SVGID_18_" cx="387.2656" cy="-395.9381" r="12.8548" gradientTransform="matrix(0.6627 -0.7794 1.216 0.955 286.8145 694.4631)" gradientUnits="userSpaceOnUse">
			<stop  offset="0" style="stop-color:#EBECD1"/>
			<stop  offset="1" style="stop-color:#010101"/>
		</radialGradient>
		<path class="st20" d="M70.5,4.5c8.6,6.8,11.8,16.8,7.1,22.3s-15.5,4.5-24.1-2.3c-8.6-6.8-11.8-16.8-7.1-22.3
			C51.1-3.3,61.9-2.3,70.5,4.5z"/>
		<g>
			<defs>
				<filter id="Adobe_OpacityMaskFilter_1_" filterUnits="userSpaceOnUse" x="52.7" y="5.6" width="18.8" height="18.2">
					<feColorMatrix  type="matrix" values="1 0 0 0 0  0 1 0 0 0  0 0 1 0 0  0 0 0 1 0"/>
				</filter>
			</defs>
			<mask maskUnits="userSpaceOnUse" x="52.7" y="5.6" width="18.8" height="18.2" id="SVGID_19_">
				<g class="st21">
					
						<radialGradient id="SVGID_20_" cx="44.2712" cy="-252.016" r="7.794" gradientTransform="matrix(0.9925 -0.5652 0.6409 1.0579 179.6997 306.347)" gradientUnits="userSpaceOnUse">
						<stop  offset="0" style="stop-color:#FFFFFF"/>
						<stop  offset="0.1318" style="stop-color:#C6C4C4"/>
						<stop  offset="0.562" style="stop-color:#535050"/>
						<stop  offset="0.8604" style="stop-color:#1D1D1C"/>
						<stop  offset="1" style="stop-color:#010101"/>
					</radialGradient>
					<path class="st22" d="M70.2,10.1c2.6,4.3,1.1,9.9-3.4,12.4c-4.5,2.6-10.2,1.1-12.9-3.2c-2.6-4.3-1.1-9.9,3.4-12.4
						C61.9,4.3,67.6,5.8,70.2,10.1z"/>
				</g>
			</mask>
			
				<radialGradient id="SVGID_21_" cx="44.2712" cy="-252.016" r="7.794" gradientTransform="matrix(0.9925 -0.5652 0.6409 1.0579 179.6997 306.347)" gradientUnits="userSpaceOnUse">
				<stop  offset="0" style="stop-color:#FFEFE0"/>
				<stop  offset="0.1396" style="stop-color:#D2C6BC"/>
				<stop  offset="0.438" style="stop-color:#807873"/>
				<stop  offset="0.8682" style="stop-color:#242222"/>
				<stop  offset="1" style="stop-color:#010101"/>
			</radialGradient>
			<path class="st23" d="M70.2,10.1c2.6,4.3,1.1,9.9-3.4,12.4c-4.5,2.6-10.2,1.1-12.9-3.2c-2.6-4.3-1.1-9.9,3.4-12.4
				C61.9,4.3,67.6,5.8,70.2,10.1z"/>
		</g>
	</g>
	<g class="st0">
		<defs>
			<filter id="Adobe_OpacityMaskFilter_2_" filterUnits="userSpaceOnUse" x="0.5" y="61.9" width="23.3" height="20.7">
				<feColorMatrix  type="matrix" values="1 0 0 0 0  0 1 0 0 0  0 0 1 0 0  0 0 0 1 0"/>
			</filter>
		</defs>
		<mask maskUnits="userSpaceOnUse" x="0.5" y="61.9" width="23.3" height="20.7" id="SVGID_22_">
			<g class="st24">
				
					<radialGradient id="SVGID_23_" cx="312.7148" cy="-396.2962" r="8.4041" gradientTransform="matrix(0.6627 -0.7794 1.216 0.955 286.8145 694.4631)" gradientUnits="userSpaceOnUse">
					<stop  offset="0" style="stop-color:#FFFFFF"/>
					<stop  offset="0.1508" style="stop-color:#CDCBCB"/>
					<stop  offset="0.4779" style="stop-color:#757271"/>
					<stop  offset="0.9536" style="stop-color:#101010"/>
					<stop  offset="1" style="stop-color:#010101"/>
				</radialGradient>
				<path class="st25" d="M17.7,65.7c5.6,4.4,7.7,11,4.6,14.6c-3.1,3.6-10.1,3-15.8-1.5c-5.6-4.4-7.7-11-4.6-14.6
					C5,60.6,12.1,61.3,17.7,65.7z"/>
			</g>
		</mask>
		
			<radialGradient id="SVGID_24_" cx="312.7148" cy="-396.2962" r="8.4041" gradientTransform="matrix(0.6627 -0.7794 1.216 0.955 286.8145 694.4631)" gradientUnits="userSpaceOnUse">
			<stop  offset="0" style="stop-color:#EBECD1"/>
			<stop  offset="1" style="stop-color:#010101"/>
		</radialGradient>
		<path class="st26" d="M17.7,65.7c5.6,4.4,7.7,11,4.6,14.6c-3.1,3.6-10.1,3-15.8-1.5c-5.6-4.4-7.7-11-4.6-14.6
			C5,60.6,12.1,61.3,17.7,65.7z"/>
		<g>
			<defs>
				<filter id="Adobe_OpacityMaskFilter_3_" filterUnits="userSpaceOnUse" x="6.1" y="66.5" width="12.3" height="11.9">
					<feColorMatrix  type="matrix" values="1 0 0 0 0  0 1 0 0 0  0 0 1 0 0  0 0 0 1 0"/>
				</filter>
			</defs>
			<mask maskUnits="userSpaceOnUse" x="6.1" y="66.5" width="12.3" height="11.9" id="SVGID_25_">
				<g class="st27">
					
						<radialGradient id="SVGID_26_" cx="-19.2794" cy="-231.4361" r="5.0955" gradientTransform="matrix(0.9925 -0.5652 0.6409 1.0579 179.6997 306.347)" gradientUnits="userSpaceOnUse">
						<stop  offset="0" style="stop-color:#FFFFFF"/>
						<stop  offset="0.1318" style="stop-color:#C6C4C4"/>
						<stop  offset="0.562" style="stop-color:#535050"/>
						<stop  offset="0.8604" style="stop-color:#1D1D1C"/>
						<stop  offset="1" style="stop-color:#010101"/>
					</radialGradient>
					<path class="st28" d="M17.5,69.4c1.7,2.8,0.7,6.5-2.2,8.1c-2.9,1.7-6.7,0.7-8.4-2.1c-1.7-2.8-0.7-6.5,2.2-8.1
						C12.1,65.6,15.8,66.6,17.5,69.4z"/>
				</g>
			</mask>
			
				<radialGradient id="SVGID_27_" cx="-19.2794" cy="-231.4361" r="5.0955" gradientTransform="matrix(0.9925 -0.5652 0.6409 1.0579 179.6997 306.347)" gradientUnits="userSpaceOnUse">
				<stop  offset="0" style="stop-color:#FFEFE0"/>
				<stop  offset="0.1396" style="stop-color:#D2C6BC"/>
				<stop  offset="0.438" style="stop-color:#807873"/>
				<stop  offset="0.8682" style="stop-color:#242222"/>
				<stop  offset="1" style="stop-color:#010101"/>
			</radialGradient>
			<path class="st29" d="M17.5,69.4c1.7,2.8,0.7,6.5-2.2,8.1c-2.9,1.7-6.7,0.7-8.4-2.1c-1.7-2.8-0.7-6.5,2.2-8.1
				C12.1,65.6,15.8,66.6,17.5,69.4z"/>
		</g>
	</g>
	<g class="st0">
		<defs>
			<filter id="Adobe_OpacityMaskFilter_4_" filterUnits="userSpaceOnUse" x="43.4" y="27.8" width="23.3" height="20.7">
				<feColorMatrix  type="matrix" values="1 0 0 0 0  0 1 0 0 0  0 0 1 0 0  0 0 0 1 0"/>
			</filter>
		</defs>
		<mask maskUnits="userSpaceOnUse" x="43.4" y="27.8" width="23.3" height="20.7" id="SVGID_28_">
			<g class="st30">
				
					<radialGradient id="SVGID_29_" cx="364.83" cy="-389.4677" r="8.4041" gradientTransform="matrix(0.6627 -0.7794 1.216 0.955 286.8145 694.4631)" gradientUnits="userSpaceOnUse">
					<stop  offset="0" style="stop-color:#FFFFFF"/>
					<stop  offset="0.1508" style="stop-color:#CDCBCB"/>
					<stop  offset="0.4779" style="stop-color:#757271"/>
					<stop  offset="0.9536" style="stop-color:#101010"/>
					<stop  offset="1" style="stop-color:#010101"/>
				</radialGradient>
				<path class="st31" d="M60.6,31.6c5.6,4.4,7.7,11,4.6,14.6c-3.1,3.6-10.1,3-15.8-1.5c-5.6-4.4-7.7-11-4.6-14.6
					C47.9,26.5,54.9,27.2,60.6,31.6z"/>
			</g>
		</mask>
		
			<radialGradient id="SVGID_30_" cx="364.83" cy="-389.4677" r="8.4041" gradientTransform="matrix(0.6627 -0.7794 1.216 0.955 286.8145 694.4631)" gradientUnits="userSpaceOnUse">
			<stop  offset="0" style="stop-color:#EBECD1"/>
			<stop  offset="1" style="stop-color:#010101"/>
		</radialGradient>
		<path class="st32" d="M60.6,31.6c5.6,4.4,7.7,11,4.6,14.6c-3.1,3.6-10.1,3-15.8-1.5c-5.6-4.4-7.7-11-4.6-14.6
			C47.9,26.5,54.9,27.2,60.6,31.6z"/>
	</g>
	<radialGradient id="SVGID_31_" cx="40.7537" cy="55.2135" r="36.2182" gradientUnits="userSpaceOnUse">
		<stop  offset="0" style="stop-color:#ECEBE0"/>
		<stop  offset="1" style="stop-color:#795059"/>
	</radialGradient>
	<path class="st33" d="M69.4,17.9L69.4,17.9L69.4,17.9c-0.1-0.4-0.3-0.7-0.6-0.9c0,0,0,0,0,0c-0.1-0.1-0.3-0.2-0.4-0.2
		c0,0-0.1,0-0.1,0c-0.2-0.1-0.3-0.1-0.5-0.1h-2.4v-3.7H16.1v3.7h-2.2c-0.2,0-0.4,0-0.5,0.1c0,0-0.1,0-0.1,0
		c-0.2,0.1-0.3,0.1-0.4,0.2c0,0,0,0,0,0c-0.3,0.2-0.5,0.5-0.6,0.9l0,0l0,0c0,0.1-0.1,0.3-0.1,0.4v13.3v0c0,0.4,0.1,0.7,0.3,1
		c0.2,0.3,0.4,0.5,0.8,0.6c0.2,0.1,0.4,0.1,0.7,0.1h2.2v4h-2.2c-0.1,0-0.2,0-0.3,0c-0.1,0-0.1,0-0.1,0c-0.1,0-0.1,0-0.2,0.1
		c-0.1,0-0.1,0.1-0.2,0.1c0,0-0.1,0-0.1,0c-0.1,0.1-0.2,0.1-0.2,0.2c0,0,0,0,0,0c-0.3,0.3-0.5,0.7-0.5,1.2v0l0,0c0,0,0,0,0,0v13.3v0
		c0,0.4,0.1,0.7,0.3,1c0.2,0.3,0.4,0.5,0.8,0.6c0.2,0.1,0.4,0.1,0.7,0.1h2.2v4h-2.2c-0.2,0-0.4,0-0.6,0.1c0,0,0,0-0.1,0
		c-0.2,0.1-0.3,0.2-0.5,0.3c0,0,0,0,0,0c-0.1,0.1-0.3,0.3-0.3,0.4c0,0,0,0,0,0c-0.1,0.2-0.2,0.4-0.2,0.6v0l0,0c0,0.1,0,0.2,0,0.3V73
		v0.1c0,0.4,0.1,0.7,0.3,1c0.2,0.3,0.4,0.5,0.8,0.6c0.2,0.1,0.4,0.1,0.7,0.1h2.2v5.5h21V90H30v1.3h-3.5H12v5.2h14.5H30v1.1h21.4
		v-1.1h2.7h15.2v-5.2H54.1h-2.7V90h-7.1v-9.7h21v-5.5h2.4c0.9,0,1.7-0.8,1.7-1.7V73V59.8c0-0.1,0-0.2,0-0.3l0,0v0
		c0-0.2-0.1-0.4-0.2-0.6c0,0,0,0,0,0c-0.1-0.2-0.2-0.3-0.3-0.4c0,0,0,0,0,0c-0.1-0.1-0.3-0.2-0.5-0.3c0,0,0,0-0.1,0
		c-0.2-0.1-0.4-0.1-0.6-0.1h-2.4v-4h2.4c0.9,0,1.7-0.8,1.7-1.7v0V39c0,0,0,0,0,0l0,0v0c0-0.5-0.2-0.9-0.5-1.2c0,0,0,0,0,0
		c-0.1-0.1-0.2-0.1-0.2-0.2c0,0-0.1,0-0.1,0c-0.1,0-0.1-0.1-0.2-0.1c-0.1,0-0.1,0-0.2-0.1c0,0-0.1,0-0.1,0c-0.1,0-0.2,0-0.3,0h-2.4
		v-4h2.4c0.9,0,1.7-0.8,1.7-1.7v0V18.3C69.5,18.1,69.5,18,69.4,17.9z"/>
</g>
</svg>
